<svg width="849" height="634" viewBox="0 0 849 634" fill="none" xmlns="http://www.w3.org/2000/svg">
<rect width="849" height="634" fill="none"/>
<g id="undraw_windows_re_uo4w 1" clip-path="url(#clip0_0:1)">
<path id="Vector" d="M330.691 176H0V0H330.691V176Z" fill="white"/>
<path id="Vector_2" d="M330.296 1.18387H1.18384V43.0135H330.296V1.18387Z" fill="#E4E4E4"/>
<path id="Vector_3" d="M330.691 176H0V0H330.691V176ZM2.36771 173.632H328.323V2.36771H2.36771V173.632Z" fill="#CACACA"/>
<path id="Path 155" d="M149.191 77.9048C147.627 77.9098 146.362 79.9402 146.365 82.4398C146.369 84.9325 147.632 86.952 149.191 86.9569H282.662C284.226 86.9519 285.491 84.9216 285.487 82.4219C285.484 79.9292 284.221 77.9097 282.662 77.9048H149.191Z" fill="#E4E4E4"/>
<path id="Path 156" d="M149.191 104.132C147.627 104.137 146.362 106.167 146.365 108.667C146.369 111.16 147.632 113.179 149.191 113.184H282.662C284.226 113.179 285.491 111.149 285.487 108.649C285.484 106.157 284.221 104.137 282.662 104.132H149.191Z" fill="#E4E4E4"/>
<path id="Path 157" d="M149.191 130.042C147.627 130.047 146.362 132.077 146.365 134.577C146.369 137.07 147.632 139.089 149.191 139.094H206.624C208.187 139.089 209.452 137.059 209.449 134.559C209.446 132.067 208.183 130.047 206.624 130.042H149.191Z" fill="#E4E4E4"/>
<path id="Vector_4" d="M81.4217 144.375C101.425 144.375 117.64 128.159 117.64 108.156C117.64 88.1531 101.425 71.9375 81.4217 71.9375C61.4187 71.9375 45.2031 88.1531 45.2031 108.156C45.2031 128.159 61.4187 144.375 81.4217 144.375Z" fill="#E4E4E4"/>
<path id="Vector_5" d="M724.52 176H393.83V0H724.52V176Z" fill="white"/>
<path id="Vector_6" d="M724.126 1.18387H395.013V43.0135H724.126V1.18387Z" fill="#E4E4E4"/>
<path id="Vector_7" d="M724.52 176H393.83V0H724.52V176ZM396.197 173.632H722.152V2.36771H396.197V173.632Z" fill="#CACACA"/>
<path id="Path 155_2" d="M543.02 77.9048C541.457 77.9098 540.192 79.9402 540.195 82.4398C540.198 84.9325 541.461 86.952 543.02 86.9569H676.492C678.055 86.9519 679.32 84.9216 679.317 82.4219C679.314 79.9292 678.051 77.9097 676.492 77.9048H543.02Z" fill="#E4E4E4"/>
<path id="Path 156_2" d="M543.02 104.132C541.457 104.137 540.192 106.167 540.195 108.667C540.198 111.16 541.461 113.179 543.02 113.184H676.492C678.055 113.179 679.32 111.149 679.317 108.649C679.314 106.157 678.051 104.137 676.492 104.132H543.02Z" fill="#E4E4E4"/>
<path id="Path 157_2" d="M543.02 130.042C541.457 130.047 540.192 132.077 540.195 134.577C540.198 137.07 541.461 139.089 543.02 139.094H600.453C602.017 139.089 603.282 137.059 603.279 134.559C603.276 132.067 602.012 130.047 600.453 130.042H543.02Z" fill="#E4E4E4"/>
<path id="Vector_8" d="M475.251 144.375C495.254 144.375 511.47 128.159 511.47 108.156C511.47 88.1531 495.254 71.9375 475.251 71.9375C455.248 71.9375 439.033 88.1531 439.033 108.156C439.033 128.159 455.248 144.375 475.251 144.375Z" fill="#E4E4E4"/>
<path id="Vector_9" d="M571.76 348.5H152.76V125.5H571.76V348.5Z" fill="white"/>
<path id="Vector_10" d="M571.26 127H154.26V180H571.26V127Z" fill="#8C0D2F"/>
<path id="Vector_11" d="M571.76 348.5H152.76V125.5H571.76V348.5ZM155.76 345.5H568.76V128.5H155.76V345.5Z" fill="black"/>
<path id="Path 155_3" d="M341.792 224.209C339.811 224.215 338.208 226.788 338.212 229.955C338.216 233.113 339.816 235.672 341.792 235.678H510.906C512.887 235.672 514.49 233.099 514.486 229.932C514.482 226.774 512.881 224.215 510.906 224.209H341.792Z" fill="#E4E4E4"/>
<path id="Path 156_3" d="M341.792 257.44C339.811 257.446 338.208 260.019 338.212 263.186C338.216 266.345 339.816 268.903 341.792 268.91H510.906C512.887 268.903 514.49 266.331 514.486 263.163C514.482 260.005 512.881 257.446 510.906 257.44H341.792Z" fill="#E4E4E4"/>
<path id="Path 157_3" d="M341.792 290.269C339.811 290.276 338.208 292.848 338.212 296.015C338.216 299.174 339.816 301.733 341.792 301.739H414.562C416.543 301.732 418.146 299.16 418.142 295.993C418.138 292.834 416.537 290.276 414.562 290.269H341.792Z" fill="#E4E4E4"/>
<path id="Vector_12" d="M255.925 308.429C281.27 308.429 301.816 287.883 301.816 262.539C301.816 237.194 281.27 216.648 255.925 216.648C230.58 216.648 210.034 237.194 210.034 262.539C210.034 287.883 230.58 308.429 255.925 308.429Z" fill="#E4E4E4"/>
<path id="Vector_13" d="M751.352 607.074L740.153 612.063L715.58 571.242L732.109 563.879L751.352 607.074Z" fill="#FFB6B6"/>
<path id="Vector_14" d="M759.044 616.657L722.935 632.744L722.731 632.287C721.071 628.56 720.959 624.325 722.42 620.515C723.882 616.705 726.797 613.632 730.524 611.971L730.525 611.97L752.579 602.145L759.044 616.657Z" fill="black"/>
<path id="Vector_15" d="M694.914 378.662C696.046 377.573 696.925 376.249 697.489 374.783C698.053 373.317 698.289 371.746 698.18 370.179C698.072 368.612 697.621 367.088 696.859 365.715C696.098 364.341 695.045 363.151 693.773 362.229L681.909 265.106L663.408 269.662L678.231 365.178C676.823 367.416 676.285 370.093 676.718 372.701C677.152 375.309 678.527 377.668 680.584 379.33C682.64 380.992 685.235 381.842 687.876 381.719C690.517 381.596 693.022 380.508 694.914 378.662V378.662Z" fill="#FFB6B6"/>
<path id="Vector_16" d="M688.585 280.752C687.744 281.509 686.685 281.978 685.559 282.091L661.354 284.531C660.594 284.607 659.826 284.519 659.103 284.272C658.38 284.026 657.719 283.626 657.164 283.1C656.609 282.575 656.175 281.936 655.889 281.227C655.604 280.519 655.474 279.757 655.51 278.994L656.64 254.766C656.462 252.974 656.641 251.165 657.168 249.444C657.695 247.722 658.559 246.123 659.71 244.738C661.447 242.613 663.776 241.052 666.401 240.25C669.025 239.449 671.829 239.443 674.457 240.235C677.085 241.026 679.419 242.579 681.165 244.697C682.911 246.815 683.989 249.403 684.265 252.134L690.181 275.498C690.418 276.436 690.394 277.421 690.113 278.347C689.832 279.273 689.303 280.104 688.585 280.752V280.752Z" fill="#8C0D2F"/>
<path id="Vector_17" d="M673.507 342.586L606.206 329.208L605.758 319.811L605.767 319.752L613.022 271.554C612.047 269.521 603.417 250.514 615.955 239.858C618.912 237.338 621.64 234.561 624.108 231.561C628.019 226.667 633.06 222.794 638.797 220.276C644.534 217.757 650.796 216.669 657.047 217.103C660.92 217.417 664.679 218.566 668.065 220.471C671.452 222.376 674.387 224.991 676.667 228.137C681.651 234.823 683.905 243.154 682.973 251.441L673.507 342.586Z" fill="#8C0D2F"/>
<path id="Vector_18" d="M605.587 620.86L593.328 620.859L587.495 573.571L605.59 573.572L605.587 620.86Z" fill="#FFB6B6"/>
<path id="Vector_19" d="M608.714 632.744L569.183 632.742V632.242C569.184 628.162 570.805 624.248 573.69 621.363C576.576 618.477 580.489 616.856 584.57 616.856H584.571L608.715 616.857L608.714 632.744Z" fill="black"/>
<path id="Vector_20" d="M586.76 602.5L584.096 405.586C583.224 376.164 590.925 347.124 606.26 322C606.26 322 665.76 321.5 675.26 342L746.26 589L726.26 598L641.26 413L610.76 603.5L586.76 602.5Z" fill="black"/>
<path id="Vector_21" d="M577.04 272.537C577.461 272.994 577.846 273.483 578.191 274L633.889 274.061L640.686 262.361L659.685 270.311L649.665 292.193C648.855 293.961 647.494 295.418 645.786 296.346C644.078 297.275 642.114 297.624 640.191 297.342L577.496 288.137C575.964 289.977 573.909 291.307 571.603 291.951C569.297 292.594 566.85 292.521 564.587 291.739C562.324 290.958 560.352 289.506 558.934 287.577C557.517 285.648 556.72 283.333 556.65 280.94C556.58 278.547 557.24 276.189 558.543 274.181C559.846 272.172 561.729 270.608 563.942 269.695C566.156 268.783 568.595 268.567 570.934 269.074C573.274 269.582 575.403 270.79 577.04 272.537V272.537Z" fill="#FFB6B6"/>
<path id="Vector_22" d="M628.76 275.28L636.874 233.625C637.721 229.28 640.149 225.402 643.689 222.743C647.229 220.084 651.63 218.832 656.039 219.23V219.23C658.74 219.474 661.351 220.328 663.673 221.729C665.995 223.131 667.968 225.041 669.443 227.317C670.918 229.593 671.857 232.175 672.187 234.867C672.517 237.559 672.231 240.291 671.35 242.856L658.67 279.78L628.76 275.28Z" fill="#8C0D2F"/>
<path id="Vector_23" d="M657.04 207.435C670.604 207.435 681.601 196.439 681.601 182.874C681.601 169.309 670.604 158.313 657.04 158.313C643.475 158.313 632.479 169.309 632.479 182.874C632.479 196.439 643.475 207.435 657.04 207.435Z" fill="#FFB6B6"/>
<path id="Vector_24" d="M627.26 169H666.26V152C657.7 148.599 649.324 145.707 644.26 152C639.751 152 635.427 153.791 632.239 156.979C629.051 160.167 627.26 164.491 627.26 169V169Z" fill="black"/>
<path id="Vector_25" d="M668.419 149C691.734 149 698.26 178.224 698.26 194.711C698.26 203.906 694.102 207.194 687.568 208.307L685.26 196L679.855 208.837C678.02 208.846 676.092 208.81 674.093 208.773L672.26 205L668.174 208.706C651.807 208.73 638.579 211.116 638.579 194.711C638.579 178.224 644.302 149 668.419 149Z" fill="black"/>
<path id="Vector_26" d="M847.713 634H466.713C466.448 634 466.193 633.895 466.006 633.707C465.818 633.52 465.713 633.265 465.713 633C465.713 632.735 465.818 632.48 466.006 632.293C466.193 632.105 466.448 632 466.713 632H847.713C847.978 632 848.232 632.105 848.42 632.293C848.607 632.48 848.713 632.735 848.713 633C848.713 633.265 848.607 633.52 848.42 633.707C848.232 633.895 847.978 634 847.713 634Z" fill="#CACACA"/>
</g>
<defs>
<clipPath id="clip0_0:1">
<rect width="848.713" height="634" fill="white"/>
</clipPath>
</defs>
</svg>
