<?xml version="1.0" encoding="UTF-8"?>
<svg xmlns="http://www.w3.org/2000/svg" xmlns:xlink="http://www.w3.org/1999/xlink" width="24pt" height="24pt" viewBox="0 0 24 24" version="1.1">
<g id="surface1">
<path style=" stroke:none;fill-rule:nonzero;fill:rgb(0%,0%,0%);fill-opacity:1;" d="M 2.691406 4.191406 C 2.523438 4.265625 2.324219 4.507812 2.277344 4.703125 C 2.207031 5 2.28125 5.132812 3.417969 6.648438 C 4.023438 7.46875 4.597656 8.277344 4.695312 8.460938 L 4.871094 8.789062 L 4.875 12.085938 L 4.875 15.375 L 3.609375 17.066406 C 2.910156 17.996094 2.320312 18.804688 2.296875 18.871094 C 2.175781 19.1875 2.292969 19.53125 2.59375 19.753906 C 2.722656 19.851562 2.765625 19.851562 5.558594 19.867188 C 8.125 19.875 8.410156 19.871094 8.558594 19.800781 C 8.886719 19.644531 9.074219 19.222656 8.960938 18.898438 C 8.933594 18.820312 8.34375 18 7.644531 17.066406 L 6.375 15.375 L 6.382812 13.742188 L 6.398438 12.113281 L 8.132812 15.828125 C 9.167969 18.054688 9.914062 19.597656 9.984375 19.664062 C 10.167969 19.835938 10.328125 19.875 10.882812 19.875 C 11.464844 19.875 11.652344 19.8125 11.832031 19.574219 C 11.886719 19.496094 12.453125 18.191406 13.082031 16.683594 L 14.226562 13.929688 L 14.242188 15.625 L 14.25 17.316406 L 13.527344 18.042969 C 12.921875 18.652344 12.800781 18.800781 12.773438 18.953125 C 12.726562 19.1875 12.773438 19.390625 12.914062 19.570312 C 13.152344 19.890625 12.933594 19.875 17.25 19.875 C 21.566406 19.875 21.347656 19.890625 21.585938 19.570312 C 21.726562 19.390625 21.773438 19.1875 21.726562 18.953125 C 21.699219 18.800781 21.578125 18.652344 20.972656 18.046875 L 20.25 17.320312 L 20.242188 13.585938 C 20.226562 9.894531 20.226562 9.847656 20.128906 9.722656 C 19.945312 9.472656 19.796875 9.398438 19.5 9.398438 C 19.203125 9.398438 19.054688 9.472656 18.871094 9.722656 C 18.773438 9.847656 18.773438 9.894531 18.757812 13.75 C 18.75 15.894531 18.757812 17.71875 18.773438 17.804688 C 18.792969 17.898438 18.886719 18.050781 18.992188 18.167969 L 19.1875 18.375 L 15.308594 18.375 L 15.476562 18.195312 C 15.570312 18.101562 15.675781 17.960938 15.699219 17.890625 C 15.734375 17.804688 15.75 16.496094 15.75 13.859375 L 15.75 9.960938 L 15.640625 9.773438 C 15.53125 9.570312 15.214844 9.375 15 9.375 C 14.785156 9.375 14.46875 9.570312 14.359375 9.773438 C 14.300781 9.875 13.503906 11.765625 12.585938 13.96875 C 11.664062 16.171875 10.894531 17.996094 10.875 18.015625 C 10.855469 18.03125 9.730469 15.675781 8.371094 12.769531 L 5.898438 7.484375 L 5.199219 6.558594 L 4.5 5.625 L 7.78125 5.625 L 9.617188 9.289062 L 11.460938 12.960938 L 11.671875 13.0625 C 11.785156 13.125 11.933594 13.171875 12 13.171875 C 12.191406 13.171875 12.53125 12.976562 12.625 12.8125 C 12.671875 12.726562 13.339844 11.082031 14.105469 9.15625 L 15.5 5.648438 L 17.34375 5.632812 L 19.1875 5.625 L 18.992188 5.832031 C 18.765625 6.078125 18.734375 6.203125 18.757812 6.882812 C 18.773438 7.445312 18.816406 7.546875 19.097656 7.753906 C 19.28125 7.890625 19.71875 7.890625 19.902344 7.753906 C 20.160156 7.566406 20.222656 7.429688 20.242188 7.039062 L 20.257812 6.679688 L 20.976562 5.953125 C 21.578125 5.347656 21.699219 5.199219 21.726562 5.046875 C 21.773438 4.8125 21.726562 4.609375 21.585938 4.429688 C 21.347656 4.109375 21.488281 4.125 18.003906 4.125 C 14.625 4.125 14.675781 4.121094 14.453125 4.363281 C 14.394531 4.425781 13.820312 5.804688 13.171875 7.429688 C 12.519531 9.050781 11.972656 10.414062 11.953125 10.449219 C 11.929688 10.496094 11.433594 9.554688 10.390625 7.472656 C 9.554688 5.796875 8.820312 4.382812 8.761719 4.328125 C 8.699219 4.269531 8.585938 4.203125 8.515625 4.175781 C 8.300781 4.09375 2.878906 4.109375 2.691406 4.191406 Z M 6.207031 17.648438 L 6.75 18.375 L 4.5 18.375 L 5.042969 17.648438 C 5.34375 17.25 5.605469 16.921875 5.625 16.921875 C 5.644531 16.921875 5.90625 17.25 6.207031 17.648438 Z M 6.207031 17.648438 "/>
</g>
</svg>
